HIERARCHY
ROOT hip
{
	OFFSET 0.000000 0.000000 0.000000 
	CHANNELS 6 Xposition Yposition Zposition Xrotation Zrotation Yrotation
	JOINT abdomen
	{
		OFFSET 0.000000 3.402643 0.000000 
		CHANNELS 3 Xrotation Zrotation Yrotation
		JOINT chest
		{
			OFFSET 0.000000 8.438565 -0.680529 
			CHANNELS 3 Xrotation Zrotation Yrotation
			JOINT neck
			{
				OFFSET 0.000000 10.207942 -0.272212 
				CHANNELS 3 Xrotation Zrotation Yrotation
				JOINT head
				{
					OFFSET 0.000000 3.130431 0.000000 
					CHANNELS 3 Xrotation Zrotation Yrotation
					End Site
					{
						OFFSET 0.000000 3.130435 0.000000 
					}
				}
			}
			JOINT lCollar
			{
				OFFSET 3.470700 6.669187 -0.816635 
				CHANNELS 3 Yrotation Zrotation Xrotation
				JOINT lShldr
				{
					OFFSET 3.198488 0.000000 0.000000 
					CHANNELS 3 Zrotation Yrotation Xrotation
					JOINT lForeArm
					{
						OFFSET 10.139888 0.000000 0.000000 
						CHANNELS 3 Yrotation Zrotation Xrotation
						JOINT lHand
						{
							OFFSET 8.370511 0.000000 0.000000 
							CHANNELS 3 Zrotation Yrotation Xrotation
							End Site
							{
								OFFSET 4.083176 0.000000 0.000000 
							}
						}
					}
				}
			}
			JOINT rCollar
			{
				OFFSET -3.470700 6.669187 -0.816635 
				CHANNELS 3 Yrotation Zrotation Xrotation
				JOINT rShldr
				{
					OFFSET -3.198488 0.000000 0.000000 
					CHANNELS 3 Zrotation Yrotation Xrotation
					JOINT rForeArm
					{
						OFFSET -10.139888 0.000000 0.000000 
						CHANNELS 3 Yrotation Zrotation Xrotation
						JOINT rHand
						{
							OFFSET -8.370511 0.000000 0.000000 
							CHANNELS 3 Zrotation Yrotation Xrotation
							End Site
							{
								OFFSET -4.083176 0.000000 0.000000 
							}
						}
					}
				}
			}
		}
	}
	JOINT lThigh
	{
		OFFSET 5.308129 -1.633274 1.361059 
		CHANNELS 3 Xrotation Zrotation Yrotation
		JOINT lShin
		{
			OFFSET -2.041588 -20.007561 0.000000 
			CHANNELS 3 Xrotation Zrotation Yrotation
			JOINT lFoot
			{
				OFFSET 0.000000 -19.190928 -1.224953 
				CHANNELS 3 Xrotation Yrotation Zrotation
				End Site
				{
					OFFSET 0.000000 -2.449906 4.627600 
				}
			}
		}
	}
	JOINT rThigh
	{
		OFFSET -5.308129 -1.633274 1.361059 
		CHANNELS 3 Xrotation Zrotation Yrotation
		JOINT rShin
		{
			OFFSET 2.041588 -20.007561 0.000000 
			CHANNELS 3 Xrotation Zrotation Yrotation
			JOINT rFoot
			{
				OFFSET 0.000000 -19.190928 -1.224953 
				CHANNELS 3 Xrotation Yrotation Zrotation
				End Site
				{
					OFFSET 0.000000 -2.449906 4.627600 
				}
			}
		}
	}
}
MOTION
Frames: 11
Frame Time: 0.033333
14.304579 43.761532 -97.007256 -1.757941 -0.693033 98.048615 34.759346 -1.411150 -3.621195 -20.839844 0.000000 0.000000 -20.062885 12.638979 -2.361133 -2.520832 -1.255077 0.218355 -4.754609 -0.109182 -0.002653 -28.257990 11.937621 0.292583 -62.755722 -31.058437 23.315134 3.269055 2.891774 11.583819 4.754609 0.109182 -0.002672 63.650867 -28.036814 -22.924286 74.975113 0.280996 13.326545 11.111890 -16.026461 17.610971 -35.308182 11.834984 -6.245729 56.693508 8.947206 -13.884119 -13.363567 -3.546589 -18.823080 -30.641123 -19.157990 -2.593485 58.715393 -0.936739 10.281434 -6.645766 6.094560 17.935005 
13.868984 42.542080 -97.077827 -1.084500 -1.767262 99.164291 35.897034 -1.544199 -3.631732 -20.839844 0.000000 0.000000 -22.130434 10.762164 -4.232113 -2.520832 -1.255077 0.218355 -4.754609 -0.109182 -0.002653 -42.900219 5.377149 4.499206 -55.572079 -30.903440 29.443689 3.307241 2.331073 13.808652 4.754609 0.109182 -0.002672 72.699791 -27.825119 -19.464891 75.830177 5.370286 12.218618 9.619303 -16.019487 14.150623 -38.280785 10.476934 -8.003921 57.245350 10.782660 -13.341321 -12.318250 -1.622665 -19.191601 -33.767078 -19.705750 0.733186 63.663567 -5.515441 10.170006 -10.491539 2.971949 17.099794 
13.625286 40.772297 -97.099663 0.234502 -1.884750 100.372833 37.280060 -2.123761 -3.110714 -20.839844 0.000000 0.000000 -23.809643 8.256650 -6.435996 -2.520832 -1.255077 0.218355 -4.754609 -0.109182 -0.002653 -55.712872 -3.539283 11.574110 -45.445930 -30.464392 34.929306 8.215399 5.058675 11.379569 4.754609 0.109182 -0.002672 79.367966 -26.686296 -14.668427 75.921852 11.612597 10.437229 5.939744 -15.168874 9.669647 -39.970230 9.530068 -8.355993 59.564419 11.268443 -12.730724 -15.953121 -0.512080 -20.163702 -33.424397 -22.048906 2.353685 67.182228 -9.246522 9.080504 -13.662446 -0.470798 18.108772 
13.544079 38.866955 -97.014870 1.944091 -1.571361 101.850723 38.873199 -3.045006 -1.975371 -20.839844 0.000000 0.000000 -25.389341 5.220639 -9.029639 -2.520832 -1.255077 0.218355 -4.754609 -0.109182 -0.002653 -67.389595 -8.797765 16.583780 -42.873089 -29.289562 33.722462 11.827320 7.813181 8.158680 4.754609 0.109182 -0.002672 83.307472 -23.945518 -8.650246 76.086388 18.135078 8.428200 1.688763 -13.200387 4.943098 -41.521683 8.368673 -8.066693 63.811451 11.107802 -12.295050 -22.666363 -0.311959 -20.316422 -30.945965 -26.063459 1.734599 68.783287 -10.886805 8.492493 -18.744394 -3.057233 20.975573 
13.327282 37.620594 -96.807228 3.370407 -1.569548 103.530396 40.361702 -3.922050 -0.129714 -20.839844 0.000000 0.000000 -26.952576 2.021071 -11.870768 -2.520832 -1.255077 0.218355 -4.754609 -0.109182 -0.002653 -76.312233 -9.144038 17.335197 -47.440880 -27.990702 29.040316 10.308080 5.795072 7.763720 4.754609 0.109182 -0.002672 84.638618 -20.138269 -2.516226 77.159988 23.904804 8.370287 -1.871464 -10.718925 3.901493 -43.050571 6.542846 -8.237157 66.716415 11.251504 -11.915982 -27.734638 -0.124892 -18.866665 -28.504238 -30.203360 -0.635204 68.583168 -10.253216 8.407787 -25.720320 -4.814415 22.602720 
12.540893 37.778492 -96.474190 3.792121 -2.299647 105.101257 41.247799 -4.210334 2.286543 -20.839844 0.000000 0.000000 -28.267511 -0.776163 -14.459960 -2.520832 -1.255077 0.218355 -4.754609 -0.109182 -0.002653 -81.705414 -6.494312 15.356218 -53.909687 -26.417961 27.060017 4.717309 2.591132 12.501546 4.754609 0.109182 -0.002672 83.185089 -17.523605 1.840726 80.563019 28.573969 10.786426 -3.063844 -8.712305 8.574203 -44.323406 5.107449 -8.853714 64.263458 11.394733 -12.584394 -25.839783 -0.351988 -19.400183 -27.662987 -32.730598 -3.164697 66.561096 -8.016612 8.152248 -30.916367 -5.525993 21.470839 
11.056931 39.500046 -96.028450 3.102059 -3.666509 106.344185 41.223042 -3.596512 4.491078 -20.839844 0.000000 0.000000 -29.118244 -2.483500 -16.158733 -2.520832 -1.255077 0.218355 -4.754609 -0.109182 -0.002653 -81.759438 -2.407506 12.262790 -61.675713 -26.642834 26.533419 2.698439 2.813295 18.265930 4.754609 0.109182 -0.002672 78.950584 -17.111858 3.721941 87.005928 31.961569 12.222543 -1.390561 -7.486462 14.975564 -44.250229 5.439614 -9.250786 55.070473 10.435796 -14.448542 -17.792212 -0.878793 -23.104324 -27.821835 -33.016788 -5.066394 60.350193 -4.726398 7.960416 -26.299789 -3.650051 19.377943 
9.347064 42.152168 -95.551727 1.833814 -5.231709 107.273941 40.329021 -2.321732 5.515657 -20.839844 0.000000 0.000000 -29.329296 -2.666481 -16.628265 -2.520832 -1.255077 0.218355 -4.754609 -0.109182 -0.002653 -78.001938 1.203456 9.683969 -69.300224 -28.333225 24.024309 5.299726 5.561836 19.848263 4.754609 0.109182 -0.002672 73.501541 -17.728481 4.183604 95.531662 33.843330 9.669831 1.601316 -7.268353 17.959505 -41.685520 7.441267 -8.824113 43.374069 8.060189 -14.687843 -12.490077 0.610691 -24.598303 -26.618605 -31.851563 -7.005180 49.780891 -1.063937 7.203794 -14.870968 -0.822920 17.392454 
7.936727 44.677402 -95.182137 0.599400 -6.366842 108.096916 38.946709 -0.914809 4.965493 -20.839844 0.000000 0.000000 -28.741173 -1.385411 -16.088821 -2.520832 -1.255077 0.218355 -4.754609 -0.109182 -0.002653 -73.648384 3.038784 8.058065 -76.573959 -29.807150 19.539339 6.662208 7.388611 18.456499 4.754609 0.109182 -0.002672 68.660316 -17.692137 4.259623 103.951202 34.064335 4.741360 4.213137 -7.492424 17.664301 -37.486256 10.116490 -7.171512 36.401424 5.639995 -12.017694 -12.380365 4.132975 -23.248335 -23.883953 -29.966141 -8.692192 40.237633 1.536723 5.396662 -7.936705 0.312096 15.208637 
6.926443 46.292339 -94.944038 -0.245689 -6.435488 109.265640 37.507080 0.212755 3.123471 -20.839844 0.000000 0.000000 -27.118135 0.795056 -15.102868 -2.520832 -1.255077 0.218355 -4.754609 -0.109182 -0.002653 -69.225586 1.159946 8.120996 -84.208359 -31.202961 15.008437 5.709944 7.356571 17.293781 4.754609 0.109182 -0.002672 65.315964 -16.006004 4.168958 110.580254 32.679531 0.678408 5.076828 -7.383172 16.847095 -32.566692 12.850776 -4.344116 37.527191 4.124338 -7.803322 -14.984595 7.165693 -19.063400 -20.894600 -27.492990 -9.106661 37.307255 2.372721 4.243918 -7.981476 0.083225 13.352324 
6.171515 46.693913 -94.759743 -0.519762 -5.253692 111.268097 36.205662 0.844539 0.454894 -20.839844 0.000000 0.000000 -24.341061 3.239924 -14.306490 -2.520832 -1.255077 0.218355 -4.754609 -0.109182 -0.002653 -64.310829 -5.464679 9.473170 -92.227493 -32.294575 11.402060 4.869597 7.047287 18.159069 4.754609 0.109182 -0.002672 63.660698 -12.507871 3.773854 115.170937 29.962509 -1.400539 3.832598 -7.533424 16.452888 -26.477427 15.406260 -1.558889 43.377831 3.705151 -4.230299 -16.370466 9.205784 -14.691502 -17.332596 -24.596544 -8.607832 41.492134 2.089839 4.754274 -12.165868 -0.126788 13.627413 
